/* XPM */
static char * ball_xpm[] = {
"20 20 4 1",
" 	c None",
".	c #FF0000",
"+	c #FF5959",
"@	c #D50000",
"      ........      ",
"      ........      ",
"    ..++........    ",
"    ..++........    ",
"  ..++............  ",
"  ..++............  ",
"..++................",
"..++................",
"....................",
"....................",
"..................@@",
"..................@@",
"..................@@",
"..................@@",
"  ..............@@  ",
"  ..............@@  ",
"    ..........@@    ",
"    ..........@@    ",
"      ....@@@@      ",
"      ....@@@@      "};
