/* XPM */
static char * ball_xpm[] = {
"10 10 4 1",
" 	c None",
".	c #FF0000",
"+	c #FF5959",
"@	c #D50000",
"   ....   ",
"  .+....  ",
" .+...... ",
".+........",
"..........",
".........@",
".........@",
" .......@ ",
"  .....@  ",
"   ..@@   "};
