/* XPM */
static char * bubble_xpm[] = {
"28 28 5 1",
" 	c None",
".	c #003790",
"+	c #00173D",
"@	c #001D2B",
"#	c #FFFFFF",
"                            ",
"                            ",
"                            ",
"                            ",
"          ........          ",
"          ........          ",
"        ..++++++++..        ",
"        ..++++++++..        ",
"      ..@@####++++++..      ",
"      ..@@####++++++..      ",
"    ..++####++++++++++..    ",
"    ..++####++++++++++..    ",
"    ..++##++++++++++++..    ",
"    ..++##++++++++++++..    ",
"    ..++++++++++++++++..    ",
"    ..++++++++++++++++..    ",
"    ..++++++++++++++++..    ",
"    ..++++++++++++++++..    ",
"      ..++++++++++++..      ",
"      ..++++++++++++..      ",
"        ..++++++++..        ",
"        ..++++++++..        ",
"          ........          ",
"          ........          ",
"                            ",
"                            ",
"                            ",
"                            "};
