/* XPM */
static char * dirt_xpm[] = {
"28 28 2 1",
" 	c #58442F",
".	c #4D3C2A",
"      ..                    ",
"      ..                    ",
"          ..      ..        ",
"          ..      ..        ",
"  ..                  ..    ",
"  ..                  ..    ",
"                            ",
"                            ",
"        ..        ..        ",
"        ..        ..        ",
"..                    ..    ",
"..                    ..    ",
"          ..                ",
"          ..                ",
"    ..          ..          ",
"    ..          ..          ",
"            ..        ..    ",
"            ..        ..    ",
"                            ",
"                            ",
"  ..              ..        ",
"  ..              ..        ",
"      ..    ..          ..  ",
"      ..    ..          ..  ",
"                            ",
"                            ",
"..                  ..      ",
"..                  ..      "};
