/* XPM */
static char * font_9x14_xpm[] = {
"324 14 2 1",
" 	c None",
".	c #FFFFFF",
"   ...   .......    .....  .......  ..................  .....  ..     ......................     ....       ..     ....     ..  .....  .......    .....  .......    .....  ...........     ....     ....     ....     ....     ...........  .....      ..     .....    .....         ...........   ....  .........  .....    .....  ",
"  .....  ........  ....... ........ .................. ....... ..     ......................     ....       ...   ......    .. ....... ........  ....... ........  ....... ...........     ....     ....     ....     ....     ........... .......    ...    .......  .......       ............  ...... ......... .......  ....... ",
"  .. ..  ..    ......   .....    .....       ..       ...   .....     ..   ...          ....    .....       .... .......    .....   .....    ......   .....    ......   ...   ...   ..     ....     ....     ....     ....     ..       .....   ...  ....   ...   ......   ...     ......        ...  ...       .....   ......   ...",
" ..   .. ..     ....     ....     ....       ..       ..     ....     ..   ...          ....   ... ..       .. ... ......   ....     ....     ....     ....     ....     ..   ...   ..     ....     ....     .....   .....     ..      .....   . .. .. ..   ..     ....     ..    .. ....       ...    ..       ....     ....     ..",
" ..   .. ..     ....       ..     ....       ..       ..       ..     ..   ...          ....  ...  ..       ..  .  .... .   ....     ....     ....     ....     ....          ...   ..     ....     ....     .. ... ... ..     ..     ... ..   . ....  ..          ..       ..   ..  ....       ..             .....     ....     ..",
"..     ....    .. ..       ..     ....       ..       ..       ..     ..   ...          .... ...   ..       ..     .... ..  ....     ....    .....     ....    ......         ...   ..     ....     ....     ..  .....  ..     ..    ...  ..  .  ...   ..         ...      ...  ..   ....       ..            ... ...   ......    ..",
"..     .........  ..       ..     ........   ......   ..       .........   ...          .......    ..       ..     ....  .  ....     .......... ..     ..........  ......     ...   ..     ....     ....     ..   ...   ...   ...    ..   ..  .  ..    ..        ...     ....  ..    .........  .......      ...   .......  ........",
"................  ..       ..     ........   ......   ..   .............   ...          .......    ..       ..     ....  .. ....     .........  ..     .........    ......    ...   ..     ....     ....     ..   ...    ... ...    ..    ..  .  ..    ..       ...      .... ................. ........    ...    .......   .......",
"...........    .. ..       ..     ....       ..       ..   ......     ..   ...          .... ...   ..       ..     ....   . ....     ....       ..     .......          ...   ...   ..     ....     ....  .  ..  .....    .....    ...    ..  .  ..    ..      ...         ............      ......   ...  ...    ...   ...       ..",
"..     ....     ....       ..     ....       ..       ..     ....     ..   ...   ..     ....  ...  ..       ..     ....   ......     ....       ..  .  .... ...          ..   ...   ..     .....   .....  .  .. ... ...    ...    ...     .. .   ..    ..     ...           ..       ..       ....     .. ...     ..     ..       ..",
"..     ....     ....     ....     ....       ..       ..     ....     ..   ...   ..     ....   ... ..       ..     ....    .....     ....       ..   . ....  ...  ..     ..   ...   ..     .. ... ... .. ... .....   ...   ...   ...      .. .   ..    ..    ...     ..     ..       ....     ....     .....      ..     ....     ..",
"..     ....    ......   .....    .....       ..       ...   .....     ..   ...   ...   .....    .....       ..     ....    ......   .....       ...   .....   ... ...   ...   ...   ...   ...  .....  .. ... ....     ..   ...   ..       ...   ...    ..   ...      ...   ...       .....   ......   .....       ...   ......   ...",
"..     ..........  ....... ........ ...........        ....... ..     ........... ....... ..     .............     ....     .. ....... ..        ....... ..    ... .......    ...    .......    ...    ... ... ..     ..   ...   ......... ....... .................. .......        .. .......  ....... ..        .......  ....... ",
"..     .........    .....  .......  ...........         .....  ..     ...........  .....  ..     .............     ....     ..  .....  ..         ..... ...     ..  .....     ...     .....      .      .   .  ..     ..   ...   .........  .....  ..................  .....         ..  .....    .....  ..         .....    .....  "};
