/* XPM */
static char * font_5x7_x2_xpm[] = {
"360 14 2 1",
" 	c None",
".	c #FFFFFF",
"  ......  ........    ......  ......    ....................  ......  ..      ........................      ....        ..      ....      ..  ......  ........    ......  ........    ......  ............      ....      ....      ....      ....      ............  ......      ..      ......  ........          ............  ......  ..........  ......    ......  ",
"  ......  ........    ......  ......    ....................  ......  ..      ........................      ....        ..      ....      ..  ......  ........    ......  ........    ......  ............      ....      ....      ....      ....      ............  ......      ..      ......  ........          ............  ......  ..........  ......    ......  ",
"..      ....      ....      ....    ..  ..        ..        ..        ..      ..    ..            ....    ..  ..        ....  ......      ....      ....      ....      ....      ....      ..    ..    ..      ....      ....      ..  ..  ..    ..  ..          ....    ....  ....    ..      ..        ..      ......        ..      ..        ....      ....      ..",
"..      ....      ....      ....    ..  ..        ..        ..        ..      ..    ..            ....    ..  ..        ....  ......      ....      ....      ....      ....      ....      ..    ..    ..      ....      ....      ..  ..  ..    ..  ..          ....    ....  ....    ..      ..        ..      ......        ..      ..        ....      ....      ..",
"..      ....      ....        ..      ....        ..        ..        ..      ..    ..            ....  ..    ..        ..  ..  ......    ....      ....      ....      ....      ....            ..    ..      ....      ....      ..  ..  ..      ..          ..  ..  ..  ....  ..            ..        ..    ..  ....        ..              ..  ..      ....      ..",
"..      ....      ....        ..      ....        ..        ..        ..      ..    ..            ....  ..    ..        ..  ..  ......    ....      ....      ....      ....      ....            ..    ..      ....      ....      ..  ..  ..      ..          ..  ..  ..  ....  ..            ..        ..    ..  ....        ..              ..  ..      ....      ..",
"..................  ..        ..      ........    ......    ..  ................    ..            ......      ..        ..      ....  ..  ....      ..........  ..      ..........    ......      ..    ..      ....      ....  ..  ..    ..        ..        ..    ..  ..  ..    ..          ..      ....    ..    ..........  ........      ..      ......    ........",
"..................  ..        ..      ........    ......    ..  ................    ..            ......      ..        ..      ....  ..  ....      ..........  ..      ..........    ......      ..    ..      ....      ....  ..  ..    ..        ..        ..    ..  ..  ..    ..          ..      ....    ..    ..........  ........      ..      ......    ........",
"..      ....      ....        ..      ....        ..        ..      ....      ..    ..    ..      ....  ..    ..        ..      ....    ......      ....        ..  ..  ....  ..            ..    ..    ..      ....      ....  ..  ..  ..  ..      ..      ..      ..  ..  ..    ..        ..            ............        ....      ..    ..    ..      ..        ..",
"..      ....      ....        ..      ....        ..        ..      ....      ..    ..    ..      ....  ..    ..        ..      ....    ......      ....        ..  ..  ....  ..            ..    ..    ..      ....      ....  ..  ..  ..  ..      ..      ..      ..  ..  ..    ..        ..            ............        ....      ..    ..    ..      ..        ..",
"..      ....      ....      ....    ..  ..        ..        ..      ....      ..    ..    ..      ....    ..  ..        ..      ....      ....      ....        ..    ..  ..    ..  ..      ..    ..    ..      ..  ..  ..  ..  ..  ..  ..  ..      ..    ..        ....    ..    ..      ..              ..        ..        ....      ..  ..      ..      ....      ..",
"..      ....      ....      ....    ..  ..        ..        ..      ....      ..    ..    ..      ....    ..  ..        ..      ....      ....      ....        ..    ..  ..    ..  ..      ..    ..    ..      ..  ..  ..  ..  ..  ..  ..  ..      ..    ..        ....    ..    ..      ..              ..        ..        ....      ..  ..      ..      ....      ..",
"..      ..........    ......  ......    ............          ......  ..      ............  ......  ..      ..............      ....      ..  ......  ..          ....  ....      ..  ......      ..      ......      ..      ..  ..  ..      ..    ..    ..........  ......  ............................          ..........    ......  ..          ......    ......  ",
"..      ..........    ......  ......    ............          ......  ..      ............  ......  ..      ..............      ....      ..  ......  ..          ....  ....      ..  ......      ..      ......      ..      ..  ..  ..      ..    ..    ..........  ......  ............................          ..........    ......  ..          ......    ......  "};
