/* XPM */
static char * grass_xpm[] = {
"28 28 4 1",
" 	c #00D300",
".	c #00AA00",
"+	c #58442F",
"@	c #4D3C2A",
"                            ",
"                            ",
"          ..      ..        ",
"          ..      ..        ",
"  ..    ++        ++  ..    ",
"  ..    ++        ++  ..    ",
"++    ++++++++  ++++++++++  ",
"++    ++++++++  ++++++++++  ",
"++++++++@@++++++++@@++++++++",
"++++++++@@++++++++@@++++++++",
"@@++++++++++++++++++++@@++++",
"@@++++++++++++++++++++@@++++",
"++++++++++@@++++++++++++++++",
"++++++++++@@++++++++++++++++",
"++++@@++++++++++@@++++++++++",
"++++@@++++++++++@@++++++++++",
"++++++++++++@@++++++++@@++++",
"++++++++++++@@++++++++@@++++",
"++++++++++++++++++++++++++++",
"++++++++++++++++++++++++++++",
"++@@++++++++++++++@@++++++++",
"++@@++++++++++++++@@++++++++",
"++++++@@++++@@++++++++++++++",
"++++++@@++++@@++++++++++++++",
"++++++++++++++++++++++++++++",
"++++++++++++++++++++++++++++",
"++++++++++++++++++++++++++@@",
"++++++++++++++++++++++++++@@"};
