/* XPM */
static char * grass_xpm[] = {
"32 32 4 1",
" 	c #00D300",
".	c #00E700",
"+	c #58442F",
"@	c #594026",
"  ..  ........  ..........  ....",
"  ..  ........  ..........  ....",
"..........  ......  ............",
"..........  ......  ............",
"..  ....++++......++..  ....  ++",
"..  ....++++......++..  ....  ++",
"++....++++++++..  ++++++++....++",
"++....++++++++..  ++++++++....++",
"++++++++@@++++++++@@++++++++++@@",
"++++++++@@++++++++@@++++++++++@@",
"@@++++++++++++++++++++@@++++++++",
"@@++++++++++++++++++++@@++++++++",
"++++++++++@@++++++++++++++++++++",
"++++++++++@@++++++++++++++++++++",
"++++@@++++++++++@@++++++++++@@++",
"++++@@++++++++++@@++++++++++@@++",
"++++++++++++@@++++++++@@++++++++",
"++++++++++++@@++++++++@@++++++++",
"++++++++++++++++++++++++++++++++",
"++++++++++++++++++++++++++++++++",
"++@@++++++++++++++@@++++++++++++",
"++@@++++++++++++++@@++++++++++++",
"++++++@@++++@@++++++++++++++++@@",
"++++++@@++++@@++++++++++++++++@@",
"++++++++++++++++++++++++++++++++",
"++++++++++++++++++++++++++++++++",
"++++++++++++++++++++++++++@@++++",
"++++++++++++++++++++++++++@@++++",
"++++@@++++@@++++@@++++++++++++++",
"++++@@++++@@++++@@++++++++++++++",
"++++++++++++++++++++++++++++++++",
"++++++++++++++++++++++++++++++++"};
