/* XPM */
static char * grass_xpm[] = {
"16 16 4 1",
" 	c #00D300",
".	c #00E700",
"+	c #58442F",
"@	c #594026",
" . .... ..... ..",
"..... ... ......",
". ..++...+. .. +",
"+..++++..++++..+",
"++++@++.+@+++++@",
"@++++++++++@++++",
"+++++@++++++++++",
"++@+++++@+++++@+",
"++++++@++++@++++",
"++++++++++++++++",
"+@+++++++@++++++",
"+++@++@++++++++@",
"++++++++++++++++",
"+++++++++++++@++",
"++@++@++@+++++++",
"++++++++++++++++"};
