/* XPM */
static char * icon_64_xpm[] = {
"64 64 4 1",
" 	c None",
".	c #FF0000",
"+	c #FF5959",
"@	c #D50000",
"                                                                ",
"                                                                ",
"                                                                ",
"                                                                ",
"                                                                ",
"                                                                ",
"                   ..........................                   ",
"                   ..........................                   ",
"                   ..........................                   ",
"                   ..........................                   ",
"                   ..........................                   ",
"                   ..........................                   ",
"            .......++++++..........................             ",
"            .......++++++..........................             ",
"            .......++++++..........................             ",
"            .......++++++..........................             ",
"            .......++++++..........................             ",
"            .......++++++..........................             ",
"            .......++++++..........................             ",
"      ......+++++++.......................................      ",
"      ......+++++++.......................................      ",
"      ......+++++++.......................................      ",
"      ......+++++++.......................................      ",
"      ......+++++++.......................................      ",
"      ......+++++++.......................................      ",
"      ....................................................      ",
"      ....................................................      ",
"      ....................................................      ",
"      ....................................................      ",
"      ....................................................      ",
"      ....................................................      ",
"      ....................................................      ",
"      .............................................@@@@@@@      ",
"      .............................................@@@@@@@      ",
"      .............................................@@@@@@@      ",
"      .............................................@@@@@@@      ",
"      .............................................@@@@@@@      ",
"      .............................................@@@@@@@      ",
"      .............................................@@@@@@@      ",
"      .............................................@@@@@@@      ",
"      .............................................@@@@@@@      ",
"      .............................................@@@@@@@      ",
"      .............................................@@@@@@@      ",
"      .............................................@@@@@@@      ",
"      .............................................@@@@@@@      ",
"            .................................@@@@@@             ",
"            .................................@@@@@@             ",
"            .................................@@@@@@             ",
"            .................................@@@@@@             ",
"            .................................@@@@@@             ",
"            .................................@@@@@@             ",
"                   .............@@@@@@@@@@@@@                   ",
"                   .............@@@@@@@@@@@@@                   ",
"                   .............@@@@@@@@@@@@@                   ",
"                   .............@@@@@@@@@@@@@                   ",
"                   .............@@@@@@@@@@@@@                   ",
"                   .............@@@@@@@@@@@@@                   ",
"                   .............@@@@@@@@@@@@@                   ",
"                                                                ",
"                                                                ",
"                                                                ",
"                                                                ",
"                                                                ",
"                                                                "};
