/* XPM */
static char *icon_64[] = {
/* columns rows colors chars-per-pixel */
"64 64 64 1 ",
"  c None",
". c #D20000",
"X c #D30000",
"o c #D40000",
"O c #D50000",
"+ c #D90000",
"@ c #DA0000",
"# c #DB0000",
"$ c #DE0000",
"% c #E00000",
"& c #E20000",
"* c #E30000",
"= c #E40000",
"- c #E50000",
"; c #E80000",
": c #ED0000",
"> c #EE0000",
", c #EF0000",
"< c #F00000",
"1 c #F20000",
"2 c #F50000",
"3 c #F90000",
"4 c #FA0000",
"5 c #FB0000",
"6 c #FD0000",
"7 c #FE0000",
"8 c #FF0000",
"9 c #FF0101",
"0 c #FF0202",
"q c #FF0404",
"w c #FF0808",
"e c #FF0A0A",
"r c #FF0B0B",
"t c #FF0C0C",
"y c #FF0D0D",
"u c #FF1414",
"i c #FF1515",
"p c #FF1B1B",
"a c #FF1C1C",
"s c #FF1F1F",
"d c #FF2020",
"f c #FF2121",
"g c #FF2222",
"h c #FF2323",
"j c #FF2424",
"k c #FF2929",
"l c #FF3030",
"z c #FF3131",
"x c #FF3333",
"c c #FF3535",
"v c #FF3838",
"b c #FF3939",
"n c #FF3A3A",
"m c #FF3B3B",
"M c #FF3C3C",
"N c #FF4343",
"B c #FF4444",
"V c #FF4D4D",
"C c #FF5151",
"Z c #FF5252",
"A c #FF5959",
"S c #FF5E5E",
"D c #FF6464",
"F c #FF6565",
/* pixels */
"                88888888888888888888888888888888                ",
"                88888888888888888888888888888888                ",
"                88888888888888888888888888888888                ",
"                88888888888888888888888888888888                ",
"                88888888888888888888888888888888                ",
"                88888888888888888888888888888888                ",
"                rtttttrrq88888888888888888888888                ",
"               upsddddsutq88888888888888888888888               ",
"         88888rpkcvvvvzjur88888888888888888888888888888         ",
"        888888tszBVCCVNzsr888888888888888888888888888888        ",
"        888888tdvVASSAVvdt888888888888888888888888888888        ",
"        888888rdvCSDDSCMdt888888888888888888888888888888        ",
"        888888rdvCSDDSCMdt888888888888888888888888888888        ",
"        888888tdvVASSAVvdt888888888888888888888888888888        ",
"        rttrrtujcBVCCVNzsr888888888888888888888888888888        ",
"       upsddddjkzcvvvvzjur8888888888888888888888888888888       ",
"888888rpkzvvvvczkjddddsutq88888888888888888888888888888888888888",
"888888tszBVCCVBcjutrrtrrq888888888888888888888888888888888888888",
"888888tdvVASSAVvdt8888888888888888888888888888888888888888888888",
"888888tdvCSDDSCvdr8888888888888888888888888888888888888888888888",
"888888tdvCSDDSCvdr8888888888888888888888888888888888888888888888",
"888888tdvVASSAVvdt8888888888888888888888888888888888888888888888",
"888888rszNVCCVNzsr8888888888888888888888888888888888888888888888",
"888888rujzvMMvzjur8888888888888888888888888888888888888888888888",
"888888qtusddddsutq8888888888888888888888888888888888888888888888",
"8888888qrrttttrrq88888888888888888888888888888888888888888888888",
"8888888888888888888888888888888888888888888888888888888888888888",
"8888888888888888888888888888888888888888888888888888888888888888",
"8888888888888888888888888888888888888888888888888888888888888888",
"8888888888888888888888888888888888888888888888888888888888888888",
"8888888888888888888888888888888888888888888888888888888833333333",
"888888888888888888888888888888888888888888888888888888832<<,,<<<",
"88888888888888888888888888888888888888888888888888888832,;-%----",
"8888888888888888888888888888888888888888888888888888883<;%++++++",
"8888888888888888888888888888888888888888888888888888883<-+OOOOOO",
"8888888888888888888888888888888888888888888888888888883,%+O.....",
"8888888888888888888888888888888888888888888888888888883,-+O..OOO",
"8888888888888888888888888888888888888888888888888888883<-+OOOOOO",
"8888888888888888888888888888888888888888888888888888883<-+OOOOOO",
"8888888888888888888888888888888888888888888888888888883<-+OOOOOO",
"8888888888888888888888888888888888888888888888888888883<-+O.OOOO",
"8888888888888888888888888888888888888888888888888888883<-+O.OOOO",
"8888888888888888888888888888888888888888888888888888883<-+O.OOOO",
"8888888888888888888888888888888888888888888888888888883<-+O.OOOO",
"8888888888888888888888888888888888888888888888888888883<-+OOOOOO",
"8888888888888888888888888888888888888888888888888888883,-+OOOOOO",
"8888888888888888888888888888888888888888888888883333332,-+OOOOOO",
"8888888888888888888888888888888888888888888888832<<,<,,;%+OOOOOO",
"       88888888888888888888888888888888888888832,;-----%$       ",
"        888888888888888888888888888888888888883<;%++++++        ",
"        888888888888888888888888888888888888883<-+OOOOOO        ",
"        888888888888888888888888888888888888883<-+O...OO        ",
"        888888888888888888888888888888888888883<-+O..OOO        ",
"        888888888888888888888888888888888888883<-+O.OOOO        ",
"        888888888888888888888888333333333333332,%+O.OOOO        ",
"         888888888888888888888832<<,,<<<<<<<<<,;%+O.OOO         ",
"               88888888888888832,;-%----------%%$               ",
"                888888888888883<;%++++++++++++++                ",
"                888888888888883<-+OOOOOOOOOOOOOO                ",
"                888888888888883,%+O.....OOOO....                ",
"                888888888888883,-+O..OOOOOOOOOOO                ",
"                888888888888883<-+OOOOOOOOOOOOOO                ",
"                888888888888883<-+OOOOOOOOOOOOOO                ",
"                888888888888883<-+OOOOOOOOOOOOOO                "
};
