/* XPM */
static char * icon_64_xpm[] = {
"64 64 5 1",
" 	c None",
".	c #594026",
"+	c #FF0000",
"@	c #FF5959",
"#	c #D50000",
"                                                   .            ",
"                                                                ",
"                                                                ",
"                                                                ",
"                                                                ",
"                                                                ",
"                   ++++++++++++++++++++++++++                   ",
"                   ++++++++++++++++++++++++++                   ",
"                   ++++++++++++++++++++++++++                   ",
"                   ++++++++++++++++++++++++++                   ",
"                   ++++++++++++++++++++++++++                   ",
"                   ++++++++++++++++++++++++++                   ",
"            +++++++@@@@@@++++++++++++++++++++++++++             ",
"            +++++++@@@@@@++++++++++++++++++++++++++             ",
"            +++++++@@@@@@++++++++++++++++++++++++++             ",
"            +++++++@@@@@@++++++++++++++++++++++++++             ",
"            +++++++@@@@@@++++++++++++++++++++++++++             ",
"            +++++++@@@@@@++++++++++++++++++++++++++             ",
"            +++++++@@@@@@++++++++++++++++++++++++++             ",
"      ++++++@@@@@@@+++++++++++++++++++++++++++++++++++++++      ",
"      ++++++@@@@@@@+++++++++++++++++++++++++++++++++++++++      ",
"      ++++++@@@@@@@+++++++++++++++++++++++++++++++++++++++      ",
"      ++++++@@@@@@@+++++++++++++++++++++++++++++++++++++++      ",
"      ++++++@@@@@@@+++++++++++++++++++++++++++++++++++++++      ",
"      ++++++@@@@@@@+++++++++++++++++++++++++++++++++++++++      ",
"      ++++++++++++++++++++++++++++++++++++++++++++++++++++      ",
"      ++++++++++++++++++++++++++++++++++++++++++++++++++++      ",
"      ++++++++++++++++++++++++++++++++++++++++++++++++++++      ",
"      ++++++++++++++++++++++++++++++++++++++++++++++++++++      ",
"      ++++++++++++++++++++++++++++++++++++++++++++++++++++      ",
"      ++++++++++++++++++++++++++++++++++++++++++++++++++++      ",
"      ++++++++++++++++++++++++++++++++++++++++++++++++++++      ",
"      +++++++++++++++++++++++++++++++++++++++++++++#######      ",
"      +++++++++++++++++++++++++++++++++++++++++++++#######      ",
"      +++++++++++++++++++++++++++++++++++++++++++++#######      ",
"      +++++++++++++++++++++++++++++++++++++++++++++#######      ",
"      +++++++++++++++++++++++++++++++++++++++++++++#######      ",
"      +++++++++++++++++++++++++++++++++++++++++++++#######      ",
"      +++++++++++++++++++++++++++++++++++++++++++++#######      ",
"      +++++++++++++++++++++++++++++++++++++++++++++#######      ",
"      +++++++++++++++++++++++++++++++++++++++++++++#######      ",
"      +++++++++++++++++++++++++++++++++++++++++++++#######      ",
"      +++++++++++++++++++++++++++++++++++++++++++++#######      ",
"      +++++++++++++++++++++++++++++++++++++++++++++#######      ",
"      +++++++++++++++++++++++++++++++++++++++++++++#######      ",
"            +++++++++++++++++++++++++++++++++######             ",
"            +++++++++++++++++++++++++++++++++######             ",
"            +++++++++++++++++++++++++++++++++######             ",
"            +++++++++++++++++++++++++++++++++######             ",
"            +++++++++++++++++++++++++++++++++######             ",
"            +++++++++++++++++++++++++++++++++######             ",
"                   +++++++++++++#############                   ",
"                   +++++++++++++#############                   ",
"                   +++++++++++++#############                   ",
"                   +++++++++++++#############                   ",
"                   +++++++++++++#############                   ",
"                   +++++++++++++#############                   ",
"                   +++++++++++++#############                   ",
"                                                                ",
"                                                                ",
"                                                                ",
"                                                                ",
"                                                                ",
"                                                                "};
