/* XPM */
static char * ball_xpm[] = {
"16 16 4 1",
" 	c None",
".	c #FF0000",
"+	c #FF5959",
"@	c #D50000",
"    ........    ",
"    ........    ",
"  ..++........  ",
"  ..++........  ",
"..++............",
"..++............",
"................",
"................",
"..............@@",
"..............@@",
"..............@@",
"..............@@",
"  ..........@@  ",
"  ..........@@  ",
"    ....@@@@    ",
"    ....@@@@    "};
