/* XPM */
static char *icon_32[] = {
/* columns rows colors chars-per-pixel */
"32 32 24 1 ",
"  c None",
". c #D30000",
"X c #D40000",
"o c #D50000",
"O c #DE0000",
"+ c #DF0000",
"@ c #E70000",
"# c #EF0000",
"$ c #F50000",
"% c #F70000",
"& c #FD0000",
"* c #FF0000",
"= c #FF0505",
"- c #FF1010",
"; c #FF1414",
": c #FF1515",
"> c #FF1616",
", c #FF2121",
"< c #FF3333",
"1 c #FF3636",
"2 c #FF3838",
"3 c #FF4545",
"4 c #FF4646",
"5 c #FF6060",
/* pixels */
"        ****************        ",
"        ****************        ",
"        ****************        ",
"        ;;;-=***********        ",
"    ***;144<-***************    ",
"    ***;4554;***************    ",
"    ***;4554;***************    ",
"    ;;;,244<-***************    ",
"***;1442,;;-=*******************",
"***;4554;***********************",
"***;4554;***********************",
"***-<44<-***********************",
"***=-;;-=***********************",
"********************************",
"********************************",
"****************************$$$$",
"***************************$@OOO",
"***************************$O..X",
"***************************$O.XX",
"***************************$OXXX",
"***************************$OXXX",
"***************************$OXXX",
"***************************$OXXX",
"************************$$$#OXXX",
"    *******************$@OOO    ",
"    *******************$O..X    ",
"    *******************$OXXX    ",
"    ************$$$$$$$#OXXX    ",
"        *******$@OOOOOOO        ",
"        *******$O.XXXXXX        ",
"        *******$O.XXXXXX        ",
"        *******$OXXXXXXX        "
};
