/* XPM */
static char * jump_pad_platform_xpm[] = {
"28 6 3 1",
" 	c #8C5500",
".	c #AD6C0A",
"+	c #C87900",
"              ....++++++....",
"              ....++++++....",
"..++++++............        ",
"..++++++............        ",
"..........          ........",
"..........          ........"};
