/* XPM */
static char * jump_pad_base_xpm[] = {
"28 28 2 1",
" 	c None",
".	c #8A8A8A",
"                            ",
"                            ",
"                            ",
"                            ",
"                            ",
"                            ",
"          ........          ",
"          ........          ",
"      ......    ......      ",
"      ......    ......      ",
"  ......            ......  ",
"  ......            ......  ",
"      ......    ......      ",
"      ......    ......      ",
"          ........          ",
"          ........          ",
"      ......    ......      ",
"      ......    ......      ",
"  ......            ......  ",
"  ......            ......  ",
"      ......    ......      ",
"      ......    ......      ",
"          ........          ",
"          ........          ",
"      ......    ......      ",
"      ......    ......      ",
"  ......            ......  ",
"  ......            ......  "};
