/* XPM */
static char * rock_xpm[] = {
"28 28 4 1",
" 	c #8C8C8C",
".	c #7C7C7C",
"+	c #6E6E6E",
"@	c #9B9B9B",
"          ......++++++++....",
"          ......++++++++....",
"..................          ",
"..................          ",
"....@@@@@@@@@@..............",
"....@@@@@@@@@@..............",
"        ........        ....",
"        ........        ....",
"..++++++++++++......@@@@@@@@",
"..++++++++++++......@@@@@@@@",
"          ................  ",
"          ................  ",
"..................++++++....",
"..................++++++....",
"............@@@@@@@@@@......",
"............@@@@@@@@@@......",
"..++++++......            ..",
"..++++++......            ..",
"      ..................++++",
"      ..................++++",
"....              ..........",
"....              ..........",
"@@@@......................@@",
"@@@@......................@@",
"........++++..          ....",
"........++++..          ....",
"..        ..................",
"..        .................."};
