/* XPM */
static char * small_spikes_xpm[] = {
"28 28 5 1",
" 	c None",
".	c #FFFFFF",
"+	c #EEEEEE",
"@	c #CFCFCF",
"#	c #B0B0B0",
"                            ",
"                            ",
"                            ",
"                            ",
"                            ",
"                            ",
"                            ",
"                            ",
"                            ",
"                            ",
"                            ",
"                            ",
"                            ",
"                            ",
"                            ",
"                            ",
"                            ",
"                            ",
"                            ",
"                            ",
"      ..            ++      ",
"      ..            ++      ",
"    ..++++        ++++++    ",
"    ..++++        ++++++    ",
"  ++++++@@@@    ++++++@@@@  ",
"  ++++++@@@@    ++++++@@@@  ",
"++@@@@@@@@####++@@@@@@@@####",
"++@@@@@@@@####++@@@@@@@@####"};
